<?xml version="1.0" encoding="UTF-8"?>
<svg id="Layer_2" data-name="Layer 2" xmlns="http://www.w3.org/2000/svg" viewBox="0 0 960.53 1027.21">
  <defs>
    <style>
      .cls-1 {
        fill: #a97c50;
      }

      .cls-1, .cls-2, .cls-3 {
        stroke-width: 0px;
      }

      .cls-2 {
        fill: #ed1c24;
      }

      .cls-3 {
        fill: #8b5e3c;
      }
    </style>
  </defs>
  <g id="Layer_1-2" data-name="Layer 1">
    <g>
      <g>
        <path class="cls-2" d="M120.18,214.57C74.84,152.14,44.37,78.73,33.24,0,18.48,37.63,8.24,77.74,3.31,119.78c-11.52,98.25,7.49,193.03,49.51,274.88,20.16-69.86,42.37-129.25,67.36-180.08Z"/>
        <path class="cls-2" d="M955.81,108.15c-35.29,89.96-96.55,165.67-173.63,219.1-1.65,60.16,3.2,124.98,33.44,192.18,76.14-74.19,128.26-174.02,141.6-287.83,4.93-42.03,4.24-83.43-1.41-123.45Z"/>
      </g>
      <path class="cls-1" d="M783.94,536.72c100.45,219.23,241.39,490.49-261.74,490.49-255.68,0-526.23-233.04-462.95-512.23C126.29,219.15,239.3-29.06,522.19,2.76c389.47,43.8,138.67,265.37,261.74,533.97Z"/>
      <ellipse class="cls-3" cx="568.62" cy="141.81" rx="41.09" ry="33.66"/>
      <ellipse class="cls-3" cx="452.93" cy="734.47" rx="41.09" ry="33.66"/>
      <ellipse class="cls-3" cx="303.45" cy="301.55" rx="34.75" ry="42.18"/>
      <ellipse class="cls-3" cx="351.38" cy="549.21" rx="34.75" ry="42.18"/>
      <ellipse class="cls-3" cx="641.87" cy="617.34" rx="32.15" ry="44.92"/>
      <ellipse class="cls-3" cx="627.56" cy="905.55" rx="46.14" ry="41.7"/>
      <ellipse class="cls-3" cx="197.79" cy="700.82" rx="28.8" ry="38.56"/>
      <circle class="cls-3" cx="581.43" cy="357.59" r="33.83"/>
    </g>
  </g>
</svg>