<?xml version="1.0" encoding="UTF-8"?>
<svg id="Layer_2" data-name="Layer 2" xmlns="http://www.w3.org/2000/svg" viewBox="0 0 784.29 672.89">
  <defs>
    <style>
      .cls-1 {
        fill: #a97c50;
      }

      .cls-1, .cls-2, .cls-3, .cls-4 {
        stroke-width: 0px;
      }

      .cls-2 {
        fill: #ed1c24;
      }

      .cls-3 {
        fill: #231f20;
      }

      .cls-4 {
        fill: #8b5e3c;
      }
    </style>
  </defs>
  <g id="Layer_1_copy" data-name="Layer 1 copy">
    <g>
      <g>
        <g>
          <path class="cls-2" d="M55.04,300.75c-20.76-28.59-34.72-62.21-39.81-98.26-6.76,17.23-11.45,35.6-13.7,54.85-5.27,44.99,3.43,88.4,22.67,125.88,9.23-31.99,19.4-59.19,30.84-82.47Z"/>
          <path class="cls-2" d="M437.7,252.01c-16.16,41.2-44.21,75.86-79.51,100.33-.75,27.55,1.47,57.24,15.31,88.01,34.87-33.98,58.74-79.69,64.85-131.81,2.26-19.25,1.94-38.2-.65-56.53Z"/>
        </g>
        <path class="cls-1" d="M359,448.27c46,100.39,110.54,224.62-119.86,224.62-117.09,0-240.98-106.72-212-234.57,30.71-135.47,82.46-249.14,212-234.57,178.35,20.06,63.5,121.52,119.86,244.52Z"/>
        <ellipse class="cls-4" cx="260.39" cy="267.42" rx="18.82" ry="15.41"/>
        <ellipse class="cls-4" cx="207.41" cy="538.83" rx="18.82" ry="15.41"/>
        <ellipse class="cls-4" cx="138.96" cy="340.58" rx="15.91" ry="19.32"/>
        <ellipse class="cls-4" cx="160.91" cy="453.99" rx="15.91" ry="19.32"/>
        <ellipse class="cls-4" cx="293.94" cy="485.19" rx="14.72" ry="20.57"/>
        <ellipse class="cls-4" cx="287.39" cy="617.17" rx="21.13" ry="19.1"/>
        <ellipse class="cls-4" cx="90.57" cy="523.42" rx="13.19" ry="17.66"/>
        <circle class="cls-4" cx="266.26" cy="366.24" r="15.49"/>
      </g>
      <g>
        <path class="cls-3" d="M125.31,0h-47.03C42.26,0,24.7,22.92,24.7,47.33c0,22.62,16.07,44.65,45.54,44.65,11.61,0,21.73-6.85,19.35-13.1h-1.79c1.79,5.36-6.85,11.31-16.67,11.31-25.3,0-36.61-23.22-36.61-43.75.3-23.51,15.18-44.65,43.75-44.65h16.67c1.79.3,3.27,2.08,3.27,3.87v144.95c0,2.08-2.08,3.87-3.87,3.87h-4.17v1.79h35.12c41.08,0,70.25-36.31,70.25-81.56C195.55,32.15,163.7,0,125.31,0ZM125.31,154.48h-13.69c-2.08,0-3.87-1.79-3.87-3.87V5.66c0-2.08,1.79-3.87,3.87-3.87h13.69c32.15,0,59.83,31.25,59.83,72.33,0,44.05-25.3,80.37-59.83,80.37Z"/>
        <path class="cls-3" d="M255.97,154.48h-33.34c-1.79,0-3.27-1.49-3.27-3.27v-78.88c0-1.79,1.49-3.27,3.27-3.27h25.3c3.57,0,11.01,3.87,11.01,11.61h1.49v-24.7h-1.49c0,7.44-7.44,11.31-11.01,11.31h-25.3c-1.79,0-3.27-1.49-3.27-3.27V25.6c0-1.79,1.49-3.27,3.27-3.27h30.66c11.9,0,19.94,16.37,19.94,16.37h1.49l-10.42-23.22h-1.49c2.38,5.66-5.95,5.06-8.33,5.06h-50.3v1.79h2.38c1.49,0,3.27,1.49,3.27,3.27v125.61c0,1.79-1.79,3.27-3.27,3.27h-2.38v1.79h52.98c4.17,0,9.52.6,8.33,5.06h1.49l10.72-23.81h-1.49s-8.33,16.97-20.24,16.97Z"/>
        <path class="cls-3" d="M659.88,154.48h-2.38c-1.79,0-3.28-1.49-3.28-3.27V25.6c0-1.79,1.49-3.27,3.28-3.27h2.38v-1.79h-20.84v1.79h2.38c1.79,0,3.27,1.49,3.27,3.27v125.61c0,1.79-1.79,3.27-3.27,3.27h-2.38v1.79h20.84v-1.79Z"/>
        <path class="cls-3" d="M740.83,157.16c-34.53,0-62.8-30.06-62.8-68.16s27.98-69.05,62.51-69.05c21.43,0,34.83,12.2,40.48,22.32h1.79l-9.82-24.7h-1.79c.89,3.87.89,5.06-3.27,5.06-3.27,0-13.69-4.46-27.09-4.46-41.08,0-73.52,31.55-73.52,70.84s30.95,70.54,72.03,70.54c17.26,0,35.72-7.44,44.94-17.26v-3.27c-6.55,8.04-23.22,18.16-43.46,18.16Z"/>
        <path class="cls-3" d="M740.34,243.25c0-4.85-4.85-5.88-7.66-5.88-12.53,0-30.7,14.54-42.48,30.6-21.57,22.32-35.6,34.8-43.62,34.8-1.79,0-3.32-.26-3.32-3.58,0-10.48,21.97-43.69,42.92-71.79,20.44.26,38.07.26,43.69.26,3.58,0,6.13-.26,6.13-3.32,0-2.3-2.04-3.07-4.6-3.07-11.75,0-26.32,0-40.62.26,9.2-12.01,18.14-22.74,24.27-29.38,6.39-6.9,7.66-7.66,7.66-9.45,0-2.3-1.79-4.09-4.6-4.09-1.53,0-3.58,1.53-10.22,9.45-6.64,7.92-16.61,19.93-26.83,33.47-17.89,0-33.73.26-39.09.26-2.55,0-4.86.77-4.86,3.58,0,1.53,1.53,2.56,4.09,2.56,6.9,0,18.4-.51,24.53-.51h10.99c-8,10.67-15.95,21.99-22.62,32.68-1.02,1.03-2.37,2.44-4.21,4.36-17.88,18.65-33.21,33.47-41.39,33.47-3.06,0-4.09-2.04-4.09-4.34,0-5.62,6.9-17.37,14.56-26.32,4.6-5.37,7.41-7.66,7.41-9.71s-2.56-3.58-5.11-4.09c.26-.77.26-1.28.26-2.04,0-5.88-3.07-10.22-9.96-10.22-14.03,0-35.09,17.28-48.25,34.75-17.2,17.29-28.8,26.82-35.81,26.82-1.79,0-3.32-.26-3.32-3.58,0-10.48,21.97-43.69,42.92-71.79,20.44.26,38.07.26,43.69.26,3.58,0,6.13-.26,6.13-3.32,0-2.3-2.04-3.07-4.6-3.07-11.75,0-26.32,0-40.62.26,9.2-12.01,18.14-22.74,24.27-29.38,6.39-6.9,7.66-7.66,7.66-9.45,0-2.3-1.79-4.09-4.6-4.09-1.53,0-3.58,1.53-10.22,9.45-6.64,7.92-16.61,19.93-26.83,33.47-17.89,0-33.73.26-39.09.26-.23,0-.45.01-.67.03,44.1-17.33,79.11-46.36,79.11-69.27,0-6.16-2.65-30.36-52.2-33.82V24.11l67.86,132.16h6.55V37.21c0-8.93,3.27-14.88,9.82-14.88v-1.79h-23.22v1.79c7.74,0,11.31,5.95,11.31,14.88v105.07c-16.97-33.63-61.91-121.74-61.91-121.74h-18.16v1.79h2.38c1.49,0,3.27,1.49,3.27,3.27v92.99c-3.25-.18-6.7-.28-10.35-.28-2.6,0-5.23.05-7.88.15,4.25-8.94,6.63-18.91,6.63-29.46,0-39.29-32.74-70.84-73.82-70.84s-73.52,31.55-73.52,70.84c0,21.7,9.91,40.93,25.68,53.81-11.95,4.16-23.13,8.5-33.12,12.75v-1.08h-2.38c-1.79,0-3.28-1.49-3.28-3.27V25.6c0-1.79,1.49-3.27,3.28-3.27h2.38v-1.79h-15.18l-32.44,53.28-32.74-53.28h-16.37v1.79h2.38c1.49,0,3.27,1.49,3.27,3.27v115.49c0,8.04-3.27,13.39-9.82,13.39v1.79h23.22v-1.79c-7.44,0-11.31-5.36-11.31-13.39V23.51l35.72,59.83h2.08l36.02-59.23v127.1c0,1.79-1.79,3.27-3.27,3.27h-2.38v1.79h19.19c-19.32,8.3-33.95,16.14-40.59,21.32-2.81,2.3-4.09,3.58-4.09,6.39,0,3.07,1.28,5.37,3.07,5.37,1.02,0,1.53-.77,2.55-2.81,26.25-16.8,54-29.39,80.96-38.57,11.6,7.33,25.56,11.59,40.7,11.59,8.29,0,16.23-1.29,23.64-3.65-16.88,16.83-42.2,44.93-65.58,72.53-18.4-3.32-31.43-9.2-31.68-9.2-1.53,0-2.04,3.32-2.04,3.83,0,2.55,12.26,7.41,29.38,10.73-20.44,24.53-39.09,48.03-48.29,61.83-5.37,8.18-7.15,12.26-7.15,15.33,0,3.83,3.07,6.64,6.13,6.64,2.55,0,3.83-2.3,4.09-4.85,10.47-19.16,31.94-48.54,55.44-77.41,7.15,1.02,15.07,1.53,23,1.53,23.35,0,47.87-5.33,70.26-13.73-.47.54-.77,1.26-.77,2.24,0,1.53,1.53,2.56,4.09,2.56,6.9,0,18.4-.51,24.53-.51h10.99c-8.05,10.73-16.05,22.12-22.74,32.87-1.02.99-2.28,2.27-3.83,3.92-8.18,8.69-21.21,15.59-31.43,15.84,7.92-10.73,13.29-21.97,13.29-29.89,0-6.39-3.58-11.5-11.24-11.5-20.44,0-53.91,35.51-53.91,56.98,0,7.41,4.09,13.54,12.26,13.54,10.47,0,23.5-9.71,33.98-21.97,1.28.26,2.81.26,4.34.26,8.49,0,18.5-4.1,26.81-10.01-4.42,8.84-7.14,16.52-7.14,22.02,0,6.64,4.09,9.71,8.94,9.71,6.59,0,16.33-6.8,25.9-15.14-1.05,2.91-1.63,5.61-1.63,7.98,0,7.15,5.11,12.52,9.71,12.52,6.39,0,17.12-9.71,36.28-27.85-1.02,2.56-1.53,5.37-1.53,7.66,0,7.92,4.85,11.75,9.96,11.75,8.34,0,24.97-13.92,37.17-25.8-3.59,7.63-5.75,14.26-5.75,19.15,0,6.64,4.09,9.71,8.94,9.71,8.48,0,22.18-11.25,34.03-22.58-1.02,3.11-1.58,6.08-1.58,8.79,0,7.66,4.34,13.8,12.52,13.8,20.95,0,53.4-41.65,53.4-58.25,0-2.81-1.02-7.15-4.09-7.66ZM398.84,89c0-38.1,28.28-69.05,62.8-69.05s63.1,30.96,63.1,69.05c0,10.8-2.3,20.99-6.37,30.06-32.41,2.55-67.46,11.29-98.17,21.57-13.07-12.58-21.37-31.01-21.37-51.63ZM461.65,157.75c-12.93,0-24.99-4.3-35.01-11.69,31.55-10.24,61.77-15.84,86.95-18.11-2.91,4.58-6.31,8.75-10.12,12.43-1.85.55-5.69,3.6-10.96,8.51-9.16,5.63-19.69,8.85-30.86,8.85ZM444.74,230.73c-5.11,0-10.22-.26-14.82-.77,26.83-32.7,55.19-63.62,71.03-77.67,4.6-4.09,6.9-5.37,6.9-7.15,0-.24-.05-.52-.14-.83,6.33-4.8,11.79-10.58,16.16-17.11,5.34-.31,10.42-.46,15.15-.46,2.82,0,5.5.05,8.05.16v12.7c0,8.93-3.27,14.88-9.82,14.88v1.79h23.22v-1.79c-8.33,0-11.31-5.95-11.31-14.88v-12.6c34.54,1.78,43.77,12.85,43.77,24.78,0,37.56-89.68,78.95-148.19,78.95ZM460.58,302.26c-3.83,0-5.88-2.56-5.88-6.13,0-11.24,14.56-29.89,28.1-41.13-2.3,4.09-3.32,8.18-3.32,12.52,0,6.64,2.56,12.78,7.41,16.61-8.94,10.22-19.67,18.14-26.32,18.14ZM491.49,278.5c-4.09-2.04-5.62-6.13-5.62-10.99,0-6.39,4.09-17.37,9.45-20.7,2.04-1.28,3.83-1.53,5.37-1.53,2.81,0,4.34,1.53,4.34,5.37,0,7.41-5.88,18.14-13.54,27.85ZM561.49,306.86c-1.02,0-2.3-.77-2.3-3.58,0-14.82,34.24-54.93,52.12-54.93,3.32,0,4.34,1.53,4.34,4.34,0,5.11-3.07,9.45-8.43,15.59-10.99,12.52-39.09,38.58-45.73,38.58ZM691.29,302.26c-3.83,0-5.88-2.56-5.88-6.13,0-13.8,29.38-51.1,47.01-51.1,2.3,0,3.58.77,4.6,1.02-1.79,24.27-32.19,56.21-45.73,56.21Z"/>
      </g>
    </g>
  </g>
</svg>